<?xml version="1.0" encoding="UTF-8" standalone="no"?>
<!-- Created with Inkscape (http://www.inkscape.org/) -->

<svg
   id="svg42742"
   version="1.1"
   viewBox="0 0 210 297"
   height="297mm"
   width="210mm"
   sodipodi:docname="icon.svg"
   inkscape:version="1.1.2 (0a00cf5339, 2022-02-04)"
   xmlns:inkscape="http://www.inkscape.org/namespaces/inkscape"
   xmlns:sodipodi="http://sodipodi.sourceforge.net/DTD/sodipodi-0.dtd"
   xmlns="http://www.w3.org/2000/svg"
   xmlns:svg="http://www.w3.org/2000/svg">
  <sodipodi:namedview
     id="namedview42744"
     pagecolor="#ffffff"
     bordercolor="#666666"
     borderopacity="1.0"
     inkscape:pageshadow="2"
     inkscape:pageopacity="0.0"
     inkscape:pagecheckerboard="0"
     inkscape:document-units="mm"
     showgrid="false"
     inkscape:snap-bbox="true"
     inkscape:bbox-paths="true"
     inkscape:snap-bbox-edge-midpoints="true"
     inkscape:snap-bbox-midpoints="true"
     inkscape:bbox-nodes="true"
     inkscape:zoom="1.1929936"
     inkscape:cx="223.80673"
     inkscape:cy="384.32729"
     inkscape:window-width="1920"
     inkscape:window-height="1010"
     inkscape:window-x="0"
     inkscape:window-y="34"
     inkscape:window-maximized="1"
     inkscape:current-layer="layer1"
     showguides="false"
     inkscape:guide-bbox="true"
     inkscape:snap-global="true"
     inkscape:snap-smooth-nodes="true" />
  <defs
     id="defs42739">
    <inkscape:path-effect
       effect="roughen"
       id="path-effect15244"
       is_visible="true"
       lpeversion="1.1"
       method="size"
       max_segment_size="0.8"
       segments="2"
       displace_x="10;1"
       displace_y="10;1"
       global_randomize="1;1"
       handles="along"
       shift_nodes="true"
       fixed_displacement="false"
       spray_tool_friendly="false" />
    <inkscape:path-effect
       effect="roughen"
       id="path-effect15242"
       is_visible="true"
       lpeversion="1.1"
       method="size"
       max_segment_size="1"
       segments="2"
       displace_x="0.209078;312459662"
       displace_y="0.0377441;3261466222"
       global_randomize="1.5;2407306427"
       handles="along"
       shift_nodes="true"
       fixed_displacement="false"
       spray_tool_friendly="false" />
    <inkscape:path-effect
       effect="roughen"
       id="path-effect15202"
       is_visible="true"
       lpeversion="1.1"
       method="size"
       max_segment_size="1"
       segments="4"
       displace_x="0.4;1"
       displace_y="0.16;72899273"
       global_randomize="1;2804246567"
       handles="along"
       shift_nodes="true"
       fixed_displacement="false"
       spray_tool_friendly="false" />
    <inkscape:path-effect
       effect="powerstroke"
       id="path-effect36034-2"
       is_visible="true"
       lpeversion="1"
       offset_points="0.2,0.1295683 | 0.5,0.1295683 | 0.74363325,0.077656399"
       not_jump="false"
       sort_points="true"
       interpolator_type="CentripetalCatmullRom"
       interpolator_beta="0.2"
       start_linecap_type="round"
       linejoin_type="round"
       miter_limit="3.1"
       scale_width="1"
       end_linecap_type="zerowidth" />
    <inkscape:path-effect
       effect="powerstroke"
       id="path-effect36034-6"
       is_visible="true"
       lpeversion="1"
       offset_points="0.2,0.12862851 | 0.5,0.12862851 | 0.74363325,0.077093139"
       not_jump="false"
       sort_points="true"
       interpolator_type="CentripetalCatmullRom"
       interpolator_beta="0.2"
       start_linecap_type="round"
       linejoin_type="round"
       miter_limit="3.1"
       scale_width="1"
       end_linecap_type="zerowidth" />
  </defs>
  <g
     inkscape:label="Layer 1"
     inkscape:groupmode="layer"
     id="layer1">
    <rect
       style="fill:#f7c601;fill-opacity:1;stroke:none;stroke-width:1.71554;stroke-linecap:round;stroke-linejoin:round;stroke-miterlimit:4;stroke-dasharray:none"
       id="rect36773"
       width="210.30894"
       height="160.44666"
       x="-0.15446858"
       y="136.70172" />
    <ellipse
       style="opacity:0.21121506;fill:#000001;fill-opacity:1;stroke:none;stroke-width:0.81403;stroke-linecap:round;stroke-linejoin:round;stroke-miterlimit:4;stroke-dasharray:none"
       id="path52019"
       cx="32.916054"
       cy="146.78616"
       rx="19.911127"
       ry="4.3901815" />
    <rect
       style="fill:#f7c601;fill-opacity:1;stroke:none;stroke-width:1.60256;stroke-linecap:round;stroke-linejoin:round;stroke-miterlimit:4;stroke-dasharray:none"
       id="rect36773-8"
       width="210.30894"
       height="140.01042"
       x="-0.15447621"
       y="-0.14838365" />
    <path
       style="opacity:1;fill:none;fill-opacity:1;stroke:#000000;stroke-width:0.25;stroke-linecap:round;stroke-linejoin:round;stroke-miterlimit:4;stroke-dasharray:none;stroke-opacity:1"
       id="path41052-1"
       inkscape:path-effect="#path-effect15242"
       sodipodi:type="arc"
       sodipodi:cx="73.635399"
       sodipodi:cy="142.39598"
       sodipodi:rx="15.680862"
       sodipodi:ry="2.8308105"
       d="m 89.371006,142.3983 c 0,0.092 -0.05924,0.18165 -0.106735,0.27137 -0.02939,0.094 -0.148428,0.1871 -0.246315,0.27717 -0.114885,0.0852 -0.212014,0.16575 -0.340613,0.2456 -0.145481,0.0843 -0.253721,0.16367 -0.425956,0.24286 -0.151739,0.0848 -0.571851,0.18643 -0.79873,0.2668 -0.348208,0.0782 -0.418809,0.12473 -0.605759,0.18105 -0.305089,0.0773 -0.34628,0.13725 -0.604494,0.20208 -0.192312,0.0813 -0.681585,0.15737 -1.046042,0.23053 -0.331094,0.0629 -0.746078,0.0841 -1.088664,0.14116 -0.424359,0.0145 -0.77119,0.13059 -1.111951,0.17949 -0.461224,0.0749 -0.66957,0.0734 -1.025664,0.11664 -0.390918,0.0283 -0.954063,0.13259 -1.385364,0.17555 -0.51381,0.0753 -0.925693,0.0741 -1.324592,0.10472 -0.552972,0.0323 -0.84717,0.0594 -1.257256,0.0828 -0.492423,0.027 -1.011425,0.0633 -1.482138,0.0798 -0.554407,0.0324 -0.982004,0.007 -1.449768,0.0102 -0.471581,0.004 -0.854978,-0.0202 -1.401413,-0.0202 -0.509429,0 -0.933664,0.0348 -1.430873,0.0265 -0.445027,0.0303 -1.033758,-6.9e-4 -1.542925,-0.0186 -0.477537,0.004 -1.122353,-0.0422 -1.591937,-0.0674 -0.570192,-0.026 -0.676233,-0.0845 -1.072928,-0.11251 -0.353993,-0.0722 -1.023644,-0.0855 -1.49361,-0.12863 -0.455436,-0.049 -0.826604,-0.0496 -1.214761,-0.093 -0.415426,-0.0159 -1.051769,-0.0534 -1.424756,-0.10405 -0.555638,-2.9e-4 -0.552442,-0.10948 -0.821597,-0.15254 -0.34105,-0.086 -0.809163,-0.11778 -1.130857,-0.18032 -0.3973,-0.056 -0.44707,-0.10291 -0.700326,-0.1619 -0.22345,-0.0671 -0.464427,-0.15251 -0.746228,-0.23523 -0.139977,-0.087 -0.521334,-0.17666 -0.783223,-0.27402 -0.162092,-0.0797 -0.262715,-0.14522 -0.460522,-0.23807 -0.03108,-0.0717 -0.675949,-0.21985 -0.866336,-0.33423 -0.31243,-0.0497 -0.150163,-0.0732 -0.201698,-0.11881 -0.12666,-0.0834 -0.192703,-0.21627 -0.222532,-0.32243 -0.02711,-0.0965 -0.02511,-0.19743 -0.02511,-0.28862 0,-0.092 0.0842,-0.2146 0.131791,-0.30423 0.0993,-0.10602 0.220672,-0.15189 0.29112,-0.22417 0.194237,-0.0743 0.03032,-0.13722 0.125892,-0.20516 0.02935,-0.10441 0.493697,-0.21174 0.708392,-0.31233 0.297888,-0.066 0.292568,-0.13135 0.453314,-0.19291 0.216648,-0.0847 0.498697,-0.16411 0.747442,-0.23975 0.292562,-0.0767 0.434634,-0.13974 0.699894,-0.20619 0.249273,-0.0745 0.616446,-0.13028 0.953366,-0.19876 0.318434,-0.0486 0.697888,-0.12624 1.048579,-0.18538 0.379407,-0.056 0.685567,-0.11157 1.046849,-0.16257 0.377411,-0.0542 0.876137,-0.10274 1.277979,-0.14933 0.480849,-0.0427 0.787676,-0.0909 1.172937,-0.12791 0.455847,-0.0479 0.963572,-0.0697 1.394218,-0.10198 0.539623,-0.0247 0.563523,-0.0711 0.981226,-0.0955 0.261344,-0.043 1.103552,-0.0603 1.696403,-0.0776 0.489258,-0.0204 0.84169,-0.004 1.334741,-0.009 0.500794,-0.005 1.201776,0.003 1.705288,0.003 0.50943,0 1.012932,-0.0178 1.50944,-0.009 0.496768,-0.0137 0.900617,0.0449 1.382317,0.0615 0.424463,0.0415 0.904271,0.0397 1.396067,0.0658 0.392791,0.0267 1.08205,0.0219 1.561855,0.0569 0.504935,-0.005 0.83317,0.0694 1.229156,0.10585 0.431767,0.0444 0.851399,0.0709 1.247249,0.11603 0.416645,0.0351 0.754938,0.10527 1.121939,0.15609 0.36252,0.0653 0.973511,0.14235 1.324501,0.20078 0.494555,0.0785 0.472047,0.0624 0.71776,0.10942 0.2878,0.0371 0.518743,0.10126 0.818447,0.17179 0.196243,0.0475 0.612921,0.15942 0.904182,0.24623 0.2244,0.0752 0.594924,0.16234 0.818997,0.24562 0.274674,0.0722 0.363193,0.15042 0.515222,0.22173 0.182937,0.0926 0.286445,0.16053 0.416145,0.24315 0.107056,0.0895 0.268136,0.18705 0.3662,0.28088 0.09345,0.0897 0.165068,0.17452 0.211862,0.26195 0.04769,0.0891 0.120908,0.17954 0.120908,0.27186 z" />
    <path
       style="opacity:1;fill:none;fill-opacity:1;stroke:#000000;stroke-width:0.15;stroke-linecap:round;stroke-linejoin:round;stroke-miterlimit:4;stroke-dasharray:none;stroke-opacity:1"
       id="path41052-1-7"
       inkscape:path-effect="#path-effect15202"
       sodipodi:type="arc"
       sodipodi:cx="73.635399"
       sodipodi:cy="142.39598"
       sodipodi:rx="24.859047"
       sodipodi:ry="4.4877157"
       d="m 98.48429,142.39254 c 0,0.0953 0.204684,0.23621 0.172241,0.33006 0.169288,0.16344 -0.183917,0.26661 -0.278456,0.38427 -0.135961,0.10441 -0.23137,0.22516 -0.315842,0.30135 -0.170129,0.13796 -0.114887,0.13824 -0.206285,0.20429 -0.09216,0.10178 -0.486898,0.20726 -0.657615,0.30177 -0.305796,0.0729 -0.359476,0.13312 -0.480101,0.19124 -0.281932,0.0842 -0.03732,0.15526 -0.199189,0.22258 -0.01059,0.12996 -0.783573,0.28193 -1.104387,0.38822 -0.385501,0.11589 -0.397734,0.0983 -0.57888,0.15216 -0.298002,0.0601 -0.532214,0.1711 -0.797751,0.24004 -0.303743,0.098 -0.324448,0.0725 -0.615984,0.13873 -0.147846,0.0193 -0.858825,0.16868 -1.270154,0.24799 -0.389777,0.0591 -0.793161,0.25299 -1.109455,0.30742 -0.470212,0.18816 -0.744823,0.14064 -1.040228,0.18574 -0.48514,0.0928 -0.883736,0.0943 -1.208253,0.13762 -0.560621,0.0422 -0.658997,0.004 -0.975264,0.0411 -0.434566,-0.0299 -0.78763,0.0601 -1.19604,0.10233 -0.414918,0.0129 -0.845433,0.1449 -1.285253,0.18476 -0.426122,0.0986 -0.883406,0.17164 -1.337303,0.20531 -0.448331,0.1286 -1.023198,0.0486 -1.48834,0.0727 -0.545994,0.009 -0.797887,-0.0164 -1.236057,-2e-4 -0.43214,-0.0394 -1.008636,0.0153 -1.524514,0.0314 -0.491142,-0.005 -1.029653,0.14987 -1.53184,0.16418 -0.536429,0.13333 -0.975714,0.11102 -1.470206,0.10463 -0.510723,0.0908 -0.984024,-0.0804 -1.509799,-0.11641 -0.509361,-0.0349 -1.439386,-0.035 -1.976281,-0.035 -0.528049,0 -0.98966,7.8e-4 -1.508473,-0.005 -0.477784,-0.002 -0.763657,0.0179 -1.292712,0.006 -0.303396,0.019 -1.139532,0.10453 -1.739293,0.0822 -0.44527,0.11743 -1.046992,-0.0382 -1.562296,-0.0646 -0.484491,-0.0204 -1.201964,-0.1489 -1.67671,-0.17947 -0.625527,-0.12145 -0.999574,-0.0221 -1.381287,-0.0507 -0.606928,0.001 -0.787617,-0.0921 -1.161794,-0.12442 -0.459465,-0.0703 -0.905769,-0.0873 -1.326792,-0.12944 -0.456068,-0.0512 -0.735402,-0.11475 -1.135179,-0.16047 -0.353875,-0.08 -0.833401,-0.23082 -1.255814,-0.28599 -0.362138,-0.18004 -1.065363,5.1e-4 -1.450312,-0.0553 -0.559892,0.0651 -0.566301,-0.18368 -0.846501,-0.22843 -0.345367,-0.15488 -0.703568,-0.12244 -1.04098,-0.18246 -0.337077,-0.067 -0.615145,-0.13717 -0.933321,-0.2004 -0.281591,-0.0816 -0.785937,-0.1314 -1.097448,-0.20098 -0.381282,-0.0535 -0.448144,-0.098 -0.685176,-0.15697 -0.241448,-0.0563 -0.293153,-0.14358 -0.560322,-0.22034 -0.05953,-0.0935 -0.467112,-0.2599 -0.77342,-0.36392 -0.07693,-0.15465 -0.266538,-0.13992 -0.51935,-0.23629 -0.0022,-0.0574 -0.516933,-0.24627 -0.776963,-0.3604 -0.136792,-0.10583 -0.345344,-0.10165 -0.506738,-0.18073 -0.149732,-0.0204 -0.366089,-0.16393 -0.498382,-0.24408 -0.171611,-0.0732 -0.192237,-0.12573 -0.274206,-0.18913 -0.09629,-0.0772 -0.20014,-0.13707 -0.269034,-0.21456 -0.09165,-0.067 -0.07091,-0.0827 -0.105434,-0.17036 -0.03728,-0.0947 0.0054,-0.31992 0.0054,-0.41118 0,-0.0953 0.0058,-0.14955 0.03794,-0.24328 0.02531,-0.0641 0.0081,-0.12924 0.08259,-0.23163 5.78e-4,-0.0364 0.20015,-0.34664 0.331356,-0.45921 0.09032,-0.18782 0.26554,-0.13212 0.36516,-0.20091 0.199964,-0.0664 0.265007,-0.19942 0.391802,-0.27168 0.176588,-0.12971 0.252712,-0.11433 0.410195,-0.18946 0.159639,-0.0511 0.531558,-0.14176 0.751524,-0.22897 0.309146,-0.0308 0.316708,-0.18846 0.506087,-0.25473 0.198149,-0.135 0.43028,-0.24178 0.690425,-0.32032 0.211791,-0.159 0.461225,-0.25529 0.750078,-0.33049 0.217665,-0.17555 0.614144,-0.12806 0.936236,-0.1997 0.311311,-0.044 0.647424,-0.0993 0.971274,-0.16199 0.349239,-0.0286 0.46362,-0.15794 0.799953,-0.21524 0.218128,-0.10516 0.840996,-0.0509 1.267538,-0.11254 0.389619,0.0297 0.897101,-0.0869 1.274428,-0.13539 0.501528,-0.0275 0.731211,-0.0353 1.073975,-0.0754 0.446948,0.004 0.794203,-0.17544 1.191049,-0.21776 0.429874,-0.13063 0.813248,-0.13703 1.236115,-0.17581 0.4248,-0.0922 0.919878,-0.078 1.371539,-0.11149 0.475948,-0.0337 0.848433,-0.071 1.298271,-0.0976 0.440226,-0.0372 0.879394,-0.0876 1.367918,-0.10917 0.421901,-0.0569 1.078386,-0.031 1.595909,-0.0445 0.539391,-0.004 0.918464,-0.0357 1.392651,-0.0433 0.486239,-0.0219 1.109763,-0.0161 1.627474,-0.0182 0.586504,-0.006 0.622166,-6.1e-4 1.103548,8.1e-4 0.510663,0.002 1.081389,-0.0265 1.626729,-0.0265 0.528049,0 1.180432,-0.0416 1.701139,-0.0357 0.60573,-0.0392 0.953643,-0.0639 1.42427,-0.0535 0.51434,-0.066 1.17887,0.0375 1.682333,0.0549 0.607333,0.0273 0.874405,0.0657 1.315634,0.0858 0.478296,0.0551 1.002736,0.005 1.490345,0.0337 0.488376,-0.0152 0.948101,0.10769 1.414806,0.14093 0.464477,0.0826 0.956923,0.005 1.412345,0.0433 0.473895,-0.0266 0.864536,0.0654 1.29896,0.10827 0.42398,0.0315 0.983307,0.14415 1.417241,0.19381 0.482607,0.0975 0.877954,0.0609 1.255483,0.10953 0.476505,0.0176 0.879066,0.0776 1.239131,0.12983 0.481622,0.029 0.370405,0.1674 0.701068,0.22127 0.160128,0.14236 1.070916,0.15695 1.516029,0.24029 0.44058,0.0563 0.556522,0.10109 0.846573,0.16115 0.300094,0.0571 0.630481,0.19798 0.95494,0.27403 0.267559,0.12723 0.618804,0.215 0.91731,0.2934 0.269366,0.13696 0.564087,0.1786 0.825543,0.25462 0.262722,0.10311 0.303942,0.10783 0.536928,0.18321 0.105257,0.0563 0.602516,0.1424 0.871914,0.24416 0.224064,0.0246 0.303716,0.0748 0.491353,0.15926 0.115453,0.0132 0.433072,0.17629 0.626026,0.28845 0.154728,0.0586 0.149582,0.15056 0.280608,0.24843 0.0017,0.0788 0.148684,0.3237 0.281554,0.44719 -0.04538,0.18875 0.293747,0.1738 0.400151,0.2589 0.137269,0.0404 -0.131356,0.0331 -0.09161,0.0911 0.05871,0.0856 0.331927,0.25013 0.331927,0.33756 z" />
    <path
       style="opacity:1;fill:none;fill-opacity:1;stroke:#000000;stroke-width:0.35;stroke-linecap:round;stroke-linejoin:round;stroke-miterlimit:4;stroke-dasharray:none;stroke-opacity:1"
       id="path41052"
       inkscape:path-effect="#path-effect15244"
       sodipodi:type="arc"
       sodipodi:cx="73.635399"
       sodipodi:cy="142.39598"
       sodipodi:rx="8.7031488"
       sodipodi:ry="1.5711497"
       d="m 82.334298,142.39181 c 0,0.0723 0.02657,0.16052 -0.02582,0.23023 -0.0079,0.0891 -0.237847,0.15375 -0.354228,0.22583 -0.178494,0.0564 -0.236587,0.11903 -0.351333,0.16959 -0.183091,0.0725 -0.268541,0.11872 -0.437118,0.17314 -0.175013,0.0651 -0.419831,0.12364 -0.653583,0.1792 -0.237907,0.0561 -0.516984,0.10822 -0.774347,0.15495 -0.301023,0.0503 -0.454881,0.10228 -0.729256,0.14084 -0.254191,0.0588 -0.714924,0.0875 -1.058275,0.12126 -0.380668,0.0353 -0.611326,0.0548 -0.928613,0.0767 -0.349542,0.0236 -0.724617,0.0456 -1.09293,0.061 -0.383746,0.0173 -0.719116,0.025 -1.099703,0.0319 -0.379856,0.007 -0.790932,0.0109 -1.200468,0.0109 -0.400551,0 -0.81655,0.006 -1.202647,-0.003 -0.400665,0.002 -0.792559,-0.008 -1.153895,-0.0255 -0.396977,-0.002 -0.741849,-0.0389 -1.075435,-0.0645 -0.375786,-0.0251 -0.673174,-0.0582 -0.981698,-0.091 -0.335492,-0.037 -0.615917,-0.0713 -0.903502,-0.11196 -0.292958,-0.0422 -0.573003,-0.0867 -0.835757,-0.13511 -0.26111,-0.0483 -0.445319,-0.0998 -0.67305,-0.15445 -0.183558,-0.0591 -0.483622,-0.12896 -0.690215,-0.19494 -0.189753,-0.0651 -0.342618,-0.12053 -0.487791,-0.18316 -0.139574,-0.0643 -0.280684,-0.13007 -0.384075,-0.19706 -0.106036,-0.0657 -0.194952,-0.12911 -0.246709,-0.1964 -0.05324,-0.0692 -0.06171,-0.14119 -0.06171,-0.21357 0,-0.0723 0.02737,-0.14497 0.07976,-0.21469 0.05255,-0.071 0.104934,-0.14768 0.205826,-0.21397 0.08044,-0.0792 0.261122,-0.1299 0.415838,-0.19464 0.167565,-0.0533 0.312588,-0.10628 0.49344,-0.16181 0.195318,-0.0466 0.432755,-0.10527 0.658264,-0.15818 0.255218,-0.0432 0.452539,-0.0997 0.70114,-0.14598 0.262937,-0.0485 0.528684,-0.10453 0.821845,-0.14719 0.28505,-0.053 0.54938,-0.0792 0.875518,-0.11458 0.277774,-0.0332 0.663258,-0.0737 1.034201,-0.10181 0.323145,-0.0313 0.700878,-0.0518 1.081804,-0.0695 0.350629,-0.0202 0.7949,-0.0302 1.188601,-0.0381 0.392101,-0.008 0.771238,-0.0156 1.162898,-0.0156 0.400551,0 0.72798,0.0109 1.113961,0.0204 0.341873,0.0161 0.809939,0.0242 1.199351,0.0441 0.368445,0.0177 0.740095,0.0392 1.086474,0.0661 0.356368,0.0239 0.736288,0.0564 1.05344,0.0902 0.364453,0.0315 0.550581,0.0747 0.824018,0.11259 0.270353,0.0501 0.615758,0.0908 0.887546,0.13979 0.274916,0.0485 0.572041,0.11077 0.792756,0.16183 0.277973,0.0623 0.458311,0.0791 0.623605,0.12816 0.245447,0.0355 0.354107,0.12132 0.481482,0.17559 0.178131,0.0786 0.27088,0.11383 0.359591,0.17539 0.126092,0.0686 0.176909,0.15367 0.216923,0.23485 0.03627,0.0736 0.04387,0.1446 0.04387,0.22269 z" />
    <g
       id="g73804">
      <path
         id="path32015"
         style="fill:#7b4b36;stroke-width:0.091035;stroke-linecap:round;stroke-linejoin:round"
         d="m 77.374465,141.38211 c -1e-5,2.37048 -8.661927,4.29214 -19.346959,4.29214 -10.68502,0 -15.11354,-6.61393 -15.11355,-8.98442 -2e-5,-2.37049 4.42851,0.40013 15.11355,0.40013 10.685052,0 19.346979,1.92166 19.346959,4.29215 z"
         sodipodi:nodetypes="sssss" />
      <g
         id="g73777">
        <path
           id="path13676"
           style="fill:#9a6046;stroke-width:0.0707154;stroke-linecap:round;stroke-linejoin:round"
           d="m 29.119455,115.89449 c 10.665031,0.15513 19.257361,8.94391 19.191511,19.63028 -3.0198,17.72795 -37.345421,15.03846 -38.6214977,-0.56178 0.06585,-10.68637 8.7649537,-19.22364 19.4299867,-19.0685 z"
           sodipodi:nodetypes="sccs" />
        <path
           id="path13676-7"
           style="opacity:0.1;fill:#000003;fill-opacity:1;stroke-width:0.0421608;stroke-linecap:round;stroke-linejoin:round"
           d="m 38.459761,119.28024 c 4.119294,0.10117 9.740412,7.75271 9.82635,16.07684 -0.633068,5.92625 -6.357123,10.61591 -9.77967,10.26233 -3.262603,-0.33705 -4.21282,-5.9056 -4.507759,-11.6313 0.03107,-8.05171 -0.570218,-14.83143 4.461079,-14.70787 z"
           sodipodi:nodetypes="scscs" />
        <g
           id="g13652"
           transform="matrix(0.7820985,0,0,0.7820985,-35.399423,51.737321)">
          <ellipse
             style="fill:#7b4b36;fill-opacity:1;stroke:none;stroke-width:0.0946399;stroke-linecap:round;stroke-linejoin:round"
             id="path11128"
             cx="26.536226"
             cy="88.549522"
             rx="2.7466066"
             ry="3.0665321"
             transform="rotate(-30)" />
          <ellipse
             style="fill:#7b4b36;fill-opacity:1;stroke:none;stroke-width:0.0946399;stroke-linecap:round;stroke-linejoin:round"
             id="path11128-5"
             cx="-116.41871"
             cy="6.0144486"
             rx="2.7466066"
             ry="3.0665321"
             transform="matrix(-0.8660254,-0.5,-0.5,0.8660254,0,0)" />
          <path
             id="path2615"
             style="fill:#9a6046;fill-opacity:1;stroke-width:0.185378;stroke-linecap:round;stroke-linejoin:round"
             d="m 99.919096,72.388438 c 0,5.726814 -4.270517,11.935224 -6.940269,15.122335 -1.334876,1.593556 -2.92437,2.883152 -4.689384,3.774358 -1.765014,0.891206 -3.705547,1.384024 -5.742499,1.384024 -2.036952,0 -3.977485,-0.492818 -5.742499,-1.384024 -1.765014,-0.891206 -3.354509,-2.180802 -4.689385,-3.774358 -2.669752,-3.187111 -6.940269,-9.395521 -6.940269,-15.122335 0,-11.453629 9.438815,-17.015062 17.372153,-17.015062 7.933338,0 17.372152,5.561433 17.372152,17.015062 z"
             sodipodi:nodetypes="sssssssas" />
          <path
             id="path2615-5"
             style="fill:#9a6046;fill-opacity:1;stroke-width:0.161086;stroke-linecap:round;stroke-linejoin:round"
             d="m 106.95306,78.76022 c 0.20379,4.151637 -3.02652,7.73472 -7.772102,9.751567 -4.745585,2.016847 -10.491176,2.177009 -16.883486,2.177008 -12.78462,-10e-7 -17.115554,-0.578611 -21.769757,-6.560087 -1.398906,-1.797843 -1.142328,-4.709413 -0.303191,-6.827201 0.874767,-2.207713 2.934814,-3.098948 5.105004,-4.969091 4.477415,-3.858374 10.575634,-5.147574 16.967944,-5.147575 6.39231,0 12.466854,1.421641 17.752708,4.470977 2.8601,1.649948 6.74099,3.806483 6.90288,7.104402 z"
             sodipodi:nodetypes="assaassaa" />
          <path
             style="fill:#000000;fill-opacity:0.959064;stroke:none;stroke-width:0.233987px;stroke-linecap:butt;stroke-linejoin:miter;stroke-opacity:1;opacity:0.06"
             d="m 81.041413,80.284936 1.824792,7.156496 h 3.854096 L 88.7227,80.284936 Z"
             id="path6812-9"
             sodipodi:nodetypes="ccccc" />
          <path
             style="fill:#ffffff;fill-opacity:1;stroke:none;stroke-width:0.264583px;stroke-linecap:butt;stroke-linejoin:miter;stroke-opacity:1"
             d="m 77.636253,80.284936 2.3332,7.156496 h 4.92789 l 2.560291,-7.156496 z"
             id="path6812"
             sodipodi:nodetypes="ccccc" />
          <ellipse
             style="fill:#c99371;fill-opacity:1;stroke:none;stroke-width:0.161917;stroke-linecap:round;stroke-linejoin:round"
             id="path11412"
             cx="82.770462"
             cy="68.903305"
             rx="10.493022"
             ry="6.9133682" />
          <g
             id="g6777"
             transform="translate(-0.67951219)">
            <ellipse
               style="fill:#c99371;fill-opacity:1;stroke-width:0.0945577;stroke-linecap:round;stroke-linejoin:round"
               id="path6569"
               cx="83.226456"
               cy="77.6996"
               rx="8.367775"
               ry="4.2672386" />
            <ellipse
               style="fill:#000000;fill-opacity:1;stroke-width:0.0720877;stroke-linecap:round;stroke-linejoin:round"
               id="path6321"
               cx="83.226456"
               cy="74.485611"
               rx="3.1102653"
               ry="2.6206131" />
          </g>
          <path
             style="opacity:0.06;fill:#050001;fill-opacity:1;stroke:none;stroke-width:0.338299px;stroke-linecap:butt;stroke-linejoin:miter;stroke-opacity:1"
             d="m 82.379469,81.914153 c 0.944858,0.122408 2.899733,-0.05674 4.79627,-0.666392 1.172896,-0.377036 2.260457,-0.931189 3.012469,-1.803775 0.420886,-0.488369 0.701769,-1.049364 0.72651,-1.744386 -0.0013,-1.239737 -1.028878,-2.25547 -2.34547,-2.967822 -0.922512,-0.499132 -1.963817,-0.754228 -2.912038,-0.805417 -1.839594,2.071942 -3.058932,4.634314 -3.277741,7.987792 z"
             id="path62598"
             sodipodi:nodetypes="csscscc" />
          <path
             style="opacity:0.06;fill:#090000;fill-opacity:1;stroke:none;stroke-width:0.338299px;stroke-linecap:butt;stroke-linejoin:miter;stroke-opacity:1"
             d="m 100.05018,71.655821 c -7.310659,6.605051 -7.567524,12.491216 -10.106033,18.848095 3.494741,-0.369585 6.152866,-0.704066 9.23681,-1.992127 3.772193,-1.738051 5.770463,-3.734861 6.786413,-5.635445 0.7918,-1.481265 1.0462,-2.828557 0.98569,-4.116123 0.16225,-2.049502 -2.24539,-4.431433 -6.90288,-7.1044 z"
             id="path59455"
             sodipodi:nodetypes="cccscc" />
        </g>
        <ellipse
           style="fill:#7b4b36;fill-opacity:1;stroke:none;stroke-width:0.133785;stroke-linecap:round;stroke-linejoin:round"
           id="path33025"
           cx="18.30892"
           cy="146.68094"
           rx="5.2388387"
           ry="2.6431968" />
        <ellipse
           style="fill:#7b4b36;fill-opacity:1;stroke:none;stroke-width:0.127028;stroke-linecap:round;stroke-linejoin:round"
           id="path33025-2"
           cx="39.416805"
           cy="146.38899"
           rx="4.9742556"
           ry="2.5097044"
           transform="rotate(0.19299478)" />
        <g
           id="g73629"
           transform="matrix(1.1513433,0,0,1.1513433,-4.2878758,-18.949648)">
          <path
             id="rect66578-9"
             style="fill:#c9933d;fill-opacity:1;stroke:none;stroke-width:0.720058;stroke-linecap:round;stroke-linejoin:round;stroke-miterlimit:4;stroke-dasharray:none;stroke-opacity:1"
             d="m 24.629505,117.87445 c -0.696692,-0.009 -1.387608,0.30116 -1.845882,0.89917 l -1.075903,1.40353 c -0.77183,1.00718 -0.5824,2.43935 0.42478,3.21118 l 9.595797,7.63519 c 1.007179,0.77182 2.439345,0.5824 3.211174,-0.42479 l 1.075386,-1.40353 c 0.771829,-1.00718 0.582401,-2.43934 -0.424781,-3.21117 l -3.289721,-2.80293 -2.483569,1.70584 -3.124875,-2.25619 0.9648,-3.0086 -1.661914,-1.27331 c -0.409167,-0.31356 -0.888608,-0.46851 -1.365292,-0.47439 z"
             sodipodi:nodetypes="cccccccccccccc" />
          <path
             id="rect66578"
             style="opacity:1;fill:#3f4042;fill-opacity:1;stroke:none;stroke-width:2.72148;stroke-linecap:round;stroke-linejoin:round;stroke-miterlimit:4;stroke-dasharray:none;stroke-opacity:1"
             d="m 89.087891,447.50977 c -2.633168,-0.0325 -5.244505,1.13823 -6.976563,3.39843 l -4.066406,5.30469 c -2.917151,3.80667 -2.201197,9.21957 1.605469,12.13672 l 40.267579,30.85742 c 3.80666,2.91715 9.21957,2.2012 12.13672,-1.60547 l 4.06445,-5.30468 c 2.91715,-3.80667 2.2012,-9.21957 -1.60547,-12.13672 l -16.43359,-12.59375 -9.38672,6.44726 -11.810548,-8.52734 3.646488,-11.3711 -6.281253,-4.8125 c -1.546458,-1.18509 -3.358515,-1.77074 -5.160156,-1.79296 z"
             transform="scale(0.26458333)" />
          <path
             style="fill:#3f4042;fill-opacity:1;stroke:none;stroke-width:0.264583px;stroke-linecap:butt;stroke-linejoin:miter;stroke-opacity:1"
             d="m 26.598377,120.15132 1.058333,-0.52917 c -1.025629,-0.81413 -2.072076,-1.88122 -3.027205,-1.7477 -1.072948,0.0121 -2.14112,0.60149 -2.528583,1.04437 z"
             id="path71780"
             sodipodi:nodetypes="ccccc" />
          <path
             style="opacity:0.1;fill:#000000;fill-opacity:1;stroke:none;stroke-width:0.264583px;stroke-linecap:butt;stroke-linejoin:miter;stroke-opacity:1"
             d="m 26.598377,120.15132 1.058333,-0.52917 c -1.025629,-0.81413 -2.072076,-1.88122 -3.027205,-1.7477 -1.072948,0.0121 -2.14112,0.60149 -2.528583,1.04437 1.339113,0.0185 2.742872,0.19549 4.497455,1.2325 z"
             id="path76182"
             sodipodi:nodetypes="ccccc" />
        </g>
        <ellipse
           style="fill:#7b4b36;fill-opacity:1;stroke:none;stroke-width:0.0755788;stroke-linecap:round;stroke-linejoin:round"
           id="path33202"
           cx="-4.9535327"
           cy="127.92123"
           rx="7.3288851"
           ry="2.9509015"
           transform="rotate(-10.893465)" />
        <path
           style="fill:#3f4042;stroke:none;stroke-width:0.264583px;stroke-linecap:butt;stroke-linejoin:miter;stroke-opacity:1;fill-opacity:1"
           d="m 31.682414,123.48335 1.218507,-0.60927 3.787598,3.22714 -1.243917,0.60757 -3.762188,-3.22544"
           id="path73839" />
        <path
           style="fill:#040000;stroke:none;stroke-width:0.264583px;stroke-linecap:butt;stroke-linejoin:miter;stroke-opacity:1;fill-opacity:1;opacity:0.1"
           d="m 31.682414,123.48335 1.218507,-0.60927 3.787598,3.22714 -1.243917,0.60757 -3.762188,-3.22544"
           id="path77112" />
        <ellipse
           style="fill:#7b4b36;fill-opacity:1;stroke:none;stroke-width:0.0755788;stroke-linecap:round;stroke-linejoin:round"
           id="path33202-3"
           cx="-61.162811"
           cy="118.68693"
           rx="7.3288851"
           ry="2.9509015"
           transform="matrix(-0.98198027,-0.18898344,-0.18898344,0.98198027,0,0)" />
      </g>
    </g>
    <path
       style="opacity:0.534206;fill:#000000;fill-rule:nonzero;stroke:none;stroke-width:1.46764;stroke-linecap:butt;stroke-linejoin:miter;stroke-miterlimit:4;stroke-dasharray:none;stroke-opacity:1"
       d="m 72.620522,138.22738 c -0.09781,-0.52838 -0.386838,-2.14322 -0.654197,-3.35929 -0.05944,-0.27036 -0.124437,-0.55561 -0.195716,-0.85117 -0.348124,-1.44349 -0.791206,-2.90131 -1.444042,-4.39478 -0.659168,-1.50796 -1.516961,-3.02399 -2.645162,-4.60267 -0.02961,-0.0414 -0.0598,-0.0834 -0.09058,-0.12603 -1.499014,-2.0742 -3.201044,-3.86248 -4.63858,-5.24492 1.419408,1.41742 3.061466,3.22784 4.514437,5.33261 0.02971,0.043 0.05884,0.0855 0.08741,0.1273 1.086469,1.59081 1.900529,3.12213 2.534477,4.61622 0.632057,1.48963 1.077042,2.91512 1.428694,4.35378 0.07168,0.29325 0.136868,0.57647 0.19597,0.8453 0.266143,1.21054 0.55401,2.81885 0.652481,3.35081 a 0.1295683,0.1295683 90 0 0 0.254808,-0.0472 z"
       id="path33890-6"
       sodipodi:nodetypes="cc"
       inkscape:path-effect="#path-effect36034-2"
       inkscape:original-d="m 72.493118,138.25096 c -1.03201,-5.57519 -1.8825,-11.0975 -9.540869,-18.60244" />
    <path
       style="opacity:0.534206;fill:#000000;fill-rule:nonzero;stroke:none;stroke-width:1.457;stroke-linecap:butt;stroke-linejoin:miter;stroke-miterlimit:4;stroke-dasharray:none;stroke-opacity:1"
       d="m 77.204305,139.7601 c -0.0971,-0.52455 -0.38403,-2.12767 -0.64945,-3.33493 -0.05901,-0.26839 -0.123535,-0.55157 -0.194297,-0.84499 -0.345599,-1.43302 -0.785467,-2.88026 -1.433568,-4.3629 -0.654387,-1.49703 -1.505957,-3.00207 -2.625974,-4.56929 -0.02939,-0.0411 -0.05936,-0.0828 -0.08992,-0.12512 -1.48814,-2.05916 -3.177822,-3.83446 -4.604928,-5.20688 1.40911,1.40714 3.039255,3.20443 4.481685,5.29394 0.02949,0.0427 0.05841,0.0848 0.08677,0.12637 1.078587,1.57927 1.886742,3.09949 2.516092,4.58274 0.627473,1.47883 1.06923,2.89398 1.418332,4.32221 0.07116,0.29112 0.135874,0.57229 0.194548,0.83916 0.264214,1.20177 0.54999,2.7984 0.647747,3.32651 a 0.12862851,0.12862851 90 0 0 0.25296,-0.0468 z"
       id="path33890-06"
       sodipodi:nodetypes="cc"
       inkscape:path-effect="#path-effect36034-6"
       inkscape:original-d="m 77.077825,139.78351 c -1.02452,-5.53475 -1.86885,-11.01701 -9.471656,-18.46752" />
    <text
       xml:space="preserve"
       style="font-style:normal;font-variant:normal;font-weight:normal;font-stretch:normal;font-size:15.8914px;line-height:1.25;font-family:Roboto;-inkscape-font-specification:Roboto;stroke-width:0.397285"
       x="49.822346"
       y="104.36507"
       id="text82701"><tspan
         sodipodi:role="line"
         id="tspan82699"
         style="font-style:normal;font-variant:normal;font-weight:normal;font-stretch:normal;font-family:monospace;-inkscape-font-specification:monospace;fill:#ffffff;fill-opacity:1;stroke-width:0.397285"
         x="49.822346"
         y="104.36507">Squiggles.jl</tspan></text>
    <rect
       style="opacity:1;fill:none;fill-opacity:1;stroke:#ffffff;stroke-width:0.0861415;stroke-linecap:round;stroke-linejoin:round;stroke-miterlimit:4;stroke-dasharray:none;stroke-opacity:1"
       id="rect89301"
       width="165.37764"
       height="78.945107"
       x="0.089288592"
       y="79.010063"
       inkscape:export-filename="/home/gabri/Github/Squiggles.jl/icon.png"
       inkscape:export-xdpi="700"
       inkscape:export-ydpi="700" />
    <path
       style="opacity:0.1;fill:#000001;fill-opacity:1;stroke:none;stroke-width:0.264583px;stroke-linecap:butt;stroke-linejoin:miter;stroke-opacity:1"
       d="m 34.014751,133.62118 c 0.920929,0.0339 1.606635,-0.62388 2.358999,-1.58465 0.21218,-0.27096 0.457117,-0.65027 0.779536,-0.94046 0.209408,0.007 0.408465,-0.0157 0.593716,0.006 1.693155,0.20141 2.889027,0.19443 3.694926,0.12314 2.633654,-0.23299 3.318539,-1.19082 3.365089,-1.89506 -0.0063,-0.78604 -0.506247,-1.38784 -1.236572,-1.94417 -1.163868,-0.88659 -2.559893,-1.44354 -3.820016,-1.79745 -0.781684,-0.1756 -1.416352,-0.42802 -1.978684,-0.4886 -0.420051,-0.0452 -0.78934,-0.12726 -1.122108,-0.13703 -0.389693,-0.0115 -1.334462,0.0188 -1.532787,-0.17448 -0.84624,-0.74895 -0.614944,-0.61369 -0.863487,-0.73385 -0.386924,2.3149 -0.259317,6.83848 -0.238612,9.56633 z"
       id="path2835"
       sodipodi:nodetypes="cscsscscsscccc" />
  </g>
</svg>
